<svg width="221" height="50" viewBox="0 0 221 50" fill="none" xmlns="http://www.w3.org/2000/svg">
  <g clip-path="url(#clip0_11215_407)">
    <path d="M22.4509 0.754555C35.8692 -0.497476 47.7587 9.37298 48.9969 22.7926C50.2352 36.2127 40.3528 48.0914 26.9319 49.3159C13.5304 50.5391 1.67181 40.6739 0.435298 27.2733C-0.801085 13.8733 9.05189 2.00463 22.4509 0.754555ZM27.3165 46.7352C39.2956 45.2968 47.8382 34.4157 46.3927 22.438C44.9473 10.4598 34.0613 1.92391 22.084 3.37703C10.1174 4.82871 1.59096 15.7028 3.03508 27.6698C4.47933 39.6385 15.3479 48.1709 27.3165 46.7352Z" fill="white" />
    <path d="M34.2599 12.3449L37.0667 12.3257C37.1212 20.4265 37.1251 28.5279 37.0788 36.6287L34.1765 36.6652L34.1722 21.4442L34.1589 17.2762C32.5378 20.3527 30.6973 23.3103 28.9438 26.3123C27.8324 28.2149 26.8001 30.3979 25.4247 32.1088C25.0966 32.2288 24.7407 32.2379 24.3989 32.1597C24.2872 32.1336 24.0532 32.0462 23.9683 31.9784C23.2264 31.3864 16.2504 19.1316 15.1363 17.2732C15.4223 19.4769 15.2426 21.8815 15.2414 24.1061L15.2329 36.6053L12.2651 36.6157C12.3571 28.5279 12.2119 20.4343 12.2895 12.3447L15.5213 12.3615C16.9583 14.9309 18.4999 17.4466 19.9901 19.9857C21.5738 22.6841 23.1159 25.4151 24.7984 28.0532C26.5101 24.9274 28.4242 21.8978 30.2642 18.8443C31.5675 16.6816 32.7996 14.4041 34.2599 12.3449Z" fill="white" />
    <path d="M182.867 18.1168C183.439 18.0784 184.027 18.0632 184.601 18.0734C186.741 18.1116 188.927 19.2558 190.391 20.7727C192.217 22.6628 193.065 25.299 193.003 27.8993C192.942 30.5452 191.95 33.0607 190.003 34.876C188.276 36.4839 186.064 37.3446 183.699 37.2559C180.99 37.1542 179.195 36.0131 177.378 34.074C177.308 35.1837 177.328 36.3065 177.318 37.4189C177.33 39.628 177.327 41.8371 177.309 44.0475C176.279 44.1492 175.241 44.14 174.212 44.0188C174.38 40.5982 174.231 37.0955 174.233 33.6658C174.233 28.5643 174.313 23.4491 174.199 18.3493L177.263 18.3373C177.203 19.4754 177.218 20.6251 177.201 21.7651C178.861 19.6932 180.246 18.6943 182.867 18.1168ZM184.194 34.5187C186.1 34.1614 187.576 33.3841 188.693 31.7397C189.788 30.1031 190.18 28.0962 189.782 26.1688C189.441 24.451 188.423 22.8276 186.928 21.889C185.75 21.1501 184.476 20.947 183.116 20.9855C181.228 21.3424 179.697 22.0149 178.565 23.661C177.498 25.2116 177.039 27.4194 177.399 29.2633C177.741 31.0342 178.79 32.5887 180.307 33.5641C181.516 34.3244 182.793 34.5435 184.194 34.5187Z" fill="white" />
    <path d="M125.682 10.4316C126.182 10.9449 126.337 12.2993 126.634 13.0246C123.418 14.3743 118.756 14.0968 116.17 16.567C114.624 18.0448 114.255 20.088 114.222 22.1244C115.606 20.4154 117.122 19.0306 119.391 18.6514C121.684 18.268 124.113 18.7115 125.994 20.1109C128.014 21.6146 129.138 23.7945 129.476 26.2636C129.863 29.1013 129.156 31.7772 127.415 34.0437C126.154 35.4429 124.687 36.477 122.839 36.9295C120.5 37.5033 117.829 37.206 115.767 35.9267C113.416 34.4662 112.063 32.0563 111.476 29.4051C110.599 25.4434 110.771 19.5225 113.055 16.006C115.068 12.9038 118.109 12.2895 121.488 11.486C122.891 11.1523 124.275 10.7416 125.682 10.4316ZM120.335 34.5366C122.327 34.2419 123.808 33.7646 125.046 32.0537C126.26 30.3766 126.652 28.2588 126.275 26.2428C125.972 24.6158 125.115 23.1277 123.718 22.2071C122.863 21.6415 121.87 21.3174 120.845 21.2689C118.908 21.4855 117.314 21.8869 116.024 23.4851C114.814 24.9856 114.296 27.0122 114.564 28.9135C114.808 30.6479 115.756 32.3171 117.18 33.3512C118.143 34.0502 119.177 34.3566 120.335 34.5366Z" fill="white" />
    <path d="M82.11 11.6656C83.242 11.552 84.4198 11.6064 85.5584 11.5985C85.4048 19.9339 85.5881 28.2937 85.5403 36.6332L82.5385 36.6032L82.5432 21.8577C82.5349 20.1683 82.4997 18.4753 82.6033 16.7882C79.8368 21.8976 77.3409 27.2309 74.3109 32.1851L72.3604 32.1746C69.3759 27.2818 66.8922 22.0095 64.1324 16.9816C64.2404 19.2874 64.1674 21.6287 64.1689 23.9379L64.1756 36.6345C63.1748 36.6084 62.178 36.6736 61.176 36.6267L61.1774 21.4379C61.1795 18.1729 61.1156 14.8874 61.2945 11.6269L64.6343 11.6287C65.5837 13.2565 66.3905 15.0006 67.253 16.6774C69.254 20.567 71.2346 24.4989 73.3932 28.3029C76.5657 22.9236 79.0771 17.1294 82.11 11.6656Z" fill="white" />
    <path d="M97.5485 18.1225C98.0066 18.098 98.4651 18.0807 98.9238 18.0705C101.327 18.0311 103.722 18.6868 105.454 20.4283C107.772 22.7578 108.003 25.6937 108.003 28.796C103.001 28.8599 97.9911 28.7921 92.9875 28.8143C93.1418 29.6398 93.2971 30.43 93.6899 31.1838C94.472 32.6913 95.8292 33.8193 97.4542 34.3122C99.3992 34.9017 101.356 34.5561 103.105 33.5911C103.692 33.192 104.229 32.7252 104.775 32.274C105.561 32.7226 106.355 33.0968 107.185 33.4555C105.951 35.1207 104.359 36.3348 102.345 36.8865C99.7663 37.592 96.6233 37.3155 94.3003 35.9488C92.2635 34.7478 90.8022 32.7708 90.252 30.4718C89.5658 27.7071 89.9491 24.6833 91.4491 22.2516C92.8951 19.9077 94.9241 18.7494 97.5485 18.1225ZM93.0196 26.4592C95.4975 26.4396 97.9755 26.4318 100.453 26.4383L105.085 26.4409C104.633 24.5401 104.181 22.778 102.412 21.6653C101.118 20.851 99.5485 20.727 98.059 20.8512C96.4506 21.2226 95.0948 21.9547 94.1768 23.3723C93.5553 24.3322 93.2798 25.3637 93.0196 26.4592Z" fill="white" />
    <path d="M159.781 18.1174C160.23 18.095 160.679 18.08 161.129 18.0725C163.526 18.0465 165.921 18.7576 167.632 20.5065C169.883 22.8086 170.09 25.7462 170.08 28.7847C165.098 28.8603 160.105 28.8003 155.121 28.8121C155.188 29.721 155.347 30.5034 155.772 31.3211C156.557 32.8351 157.86 33.8366 159.486 34.3126C161.661 34.9516 163.641 34.4795 165.563 33.4128C166.032 33.0894 166.45 32.6943 166.876 32.3161C167.666 32.7412 168.467 33.0855 169.299 33.4167C167.996 35.129 166.375 36.3704 164.27 36.9038C161.653 37.5676 158.649 37.3133 156.313 35.9036C154.24 34.6517 152.818 32.5886 152.273 30.2387C151.651 27.5549 152.085 24.4682 153.585 22.1415C155.085 19.8153 157.136 18.6895 159.781 18.1174ZM155.094 26.453C157.466 26.4465 159.841 26.4139 162.213 26.4387L167.24 26.4361C166.718 24.4817 166.172 22.5775 164.281 21.5024C163.11 20.8359 161.683 20.7223 160.361 20.856C158.792 21.1156 157.466 21.7058 156.492 23.0173C155.72 24.056 155.391 25.2168 155.094 26.453Z" fill="white" />
    <path d="M211.516 18.3813C214.551 18.239 217.63 18.3421 220.67 18.3518C220.514 24.4275 220.653 30.5443 220.65 36.6251L217.524 36.5912L217.522 30.3486C216.028 30.3395 214.062 30.0474 212.638 30.3865C212.193 30.4921 212.114 30.7164 211.865 31.062C210.81 32.9333 209.636 34.7394 208.577 36.6121C207.396 36.6381 206.213 36.642 205.031 36.6212C206.188 34.4499 207.758 31.6866 209.289 29.8061C209.106 29.7175 208.926 29.6236 208.749 29.5271C207.414 28.7903 206.393 27.6049 206.001 26.1183C205.595 24.5685 205.816 22.7997 206.646 21.4236C207.763 19.5672 209.513 18.8535 211.516 18.3813ZM214.722 27.7288C215.645 27.721 216.587 27.7496 217.507 27.6831C217.495 25.5223 217.501 23.3615 217.524 21.2006C215.691 21.194 213.832 21.1448 212.001 21.2452C210.846 21.6071 209.944 21.9976 209.32 23.1111C208.907 23.8512 208.796 24.8278 209.075 25.6318C209.345 26.4104 209.97 26.9568 210.705 27.2893C211.947 27.8501 213.392 27.7405 214.722 27.7288Z" fill="white" />
    <path d="M135.824 18.5491C139.783 18.4063 143.776 18.4989 147.739 18.4916L147.721 36.6229C146.733 36.6085 145.742 36.5668 144.763 36.7011L144.749 21.3425L143.069 21.4102C141.569 21.3363 140.037 21.435 138.535 21.4702C138.493 25.125 138.479 32.7016 135.919 35.4062C134.642 36.7546 133.2 36.8928 131.456 36.9072C131.443 35.9539 131.392 35.0124 131.323 34.0617C131.778 34.02 132.261 33.9887 132.704 33.8765C135.46 33.1815 135.508 24.0764 135.577 21.7807C135.604 20.886 135.406 19.2774 135.824 18.5491Z" fill="white" />
    <path d="M200.038 18.414L200.444 18.3901C200.492 18.456 200.561 18.5109 200.591 18.5877C200.727 18.9444 200.587 34.7831 200.589 36.614L197.933 36.6323L197.738 36.5932C197.313 35.8251 197.739 20.7317 197.606 18.4501C198.417 18.4602 199.228 18.4329 200.038 18.414Z" fill="white" />
    <path d="M197.55 11.5765L200.605 11.5674C200.572 12.6512 200.597 13.7359 200.612 14.8199L197.468 14.8436C197.514 13.7551 197.541 12.6659 197.55 11.5765Z" fill="white" />
  </g>
  <defs>
    <clipPath id="clip0_11215_407">
      <rect width="220.338" height="48.771" fill="white" transform="translate(0.330566 0.647461)" />
    </clipPath>
  </defs>
</svg>