<svg xmlns="http://www.w3.org/2000/svg" aria-hidden="true" style="position:absolute;width:0;height:0;overflow:hidden">
    <defs>
        <symbol id="icon-instagram" viewBox="0 0 32 32">
            <path d="M15.998 6.419c3.078 0 3.442.014 4.652.068 1.125.05 1.732.238 2.137.396.536.207.922.459 1.323.86.405.405.652.788.864 1.323.158.405.346 1.017.396 2.137.054 1.215.068 1.579.068 4.653s-.014 3.442-.068 4.653c-.05 1.125-.238 1.732-.396 2.137a3.558 3.558 0 0 1-.86 1.323 3.62 3.62 0 0 1-1.323.864c-.405.158-1.017.346-2.137.396-1.215.054-1.58.068-4.653.068s-3.442-.014-4.653-.068c-1.125-.05-1.732-.238-2.137-.396a3.558 3.558 0 0 1-1.323-.86 3.62 3.62 0 0 1-.864-1.323c-.158-.405-.346-1.017-.396-2.137-.054-1.215-.068-1.579-.068-4.653s.014-3.442.068-4.653c.05-1.125.238-1.732.396-2.137.207-.536.459-.922.86-1.323a3.62 3.62 0 0 1 1.323-.864c.405-.158 1.017-.346 2.137-.396 1.21-.054 1.575-.068 4.653-.068h.001zm0-2.074c-3.127 0-3.518.014-4.747.068-1.224.054-2.065.252-2.794.536a5.609 5.609 0 0 0-2.042 1.332 5.636 5.636 0 0 0-1.332 2.038c-.284.734-.482 1.57-.536 2.794-.054 1.233-.068 1.624-.068 4.751s.014 3.518.068 4.747c.054 1.224.252 2.065.536 2.794.297.76.688 1.404 1.332 2.042a5.637 5.637 0 0 0 2.038 1.328c.734.284 1.57.482 2.794.536 1.228.054 1.62.068 4.747.068s3.519-.014 4.747-.068c1.224-.054 2.065-.252 2.794-.536.756-.292 1.4-.688 2.038-1.328s1.035-1.282 1.328-2.038c.284-.734.482-1.57.536-2.794.054-1.228.068-1.62.068-4.747s-.014-3.518-.068-4.747c-.054-1.224-.252-2.065-.536-2.794a5.405 5.405 0 0 0-1.318-2.047 5.621 5.621 0 0 0-2.038-1.327c-.734-.284-1.57-.482-2.794-.536-1.233-.058-1.624-.072-4.751-.072l-.001.001z"/>
            <path d="M15.998 9.946a5.918 5.918 0 1 0 5.917 5.917 5.918 5.918 0 0 0-5.917-5.917zm0 9.755a3.838 3.838 0 1 1 0-7.676 3.838 3.838 0 0 1 0 7.676zM23.529 9.713a1.38 1.38 0 1 1-2.761 0 1.38 1.38 0 0 1 2.761 0z"/>
        </symbol>
        <symbol id="icon-facebook" viewBox="0 0 32 32">
            <path d="M28.8 16.253c0-7.112-5.731-12.878-12.8-12.878S3.2 9.141 3.2 16.253c0 6.428 4.681 11.756 10.8 12.722v-8.999h-3.25v-3.723H14v-2.837c0-3.228 1.911-5.01 4.835-5.01 1.401 0 2.865.252 2.865.252v3.169h-1.614c-1.59 0-2.086.993-2.086 2.011v2.416h3.55l-.567 3.723H18v8.999c6.119-.966 10.8-6.294 10.8-12.722z"/>
        </symbol>
        <symbol id="icon-youtube" viewBox="0 0 32 32">
            <path d="M28.279 9.724a3.199 3.199 0 0 0-2.255-2.261C24.02 6.913 16 6.904 16 6.904s-8.018-.009-10.024.517a3.272 3.272 0 0 0-2.261 2.275c-.529 2.004-.534 6.162-.534 6.162s-.005 4.178.52 6.162a3.204 3.204 0 0 0 2.257 2.259c2.025.55 10.022.559 10.022.559s8.019.009 10.024-.516a3.221 3.221 0 0 0 2.262-2.257c.53-2.003.534-6.159.534-6.159s.026-4.179-.521-6.184zm-14.844 9.987.006-7.68 6.665 3.846-6.671 3.834z"/>
        </symbol>
    </defs>
</svg>