<svg width="25" height="25" viewBox="0 0 25 25" fill="none" xmlns="http://www.w3.org/2000/svg">
  <path d="M12.4988 5.01495C14.9032 5.01495 15.1878 5.02564 16.1332 5.06782C17.0123 5.10663 17.4864 5.25398 17.803 5.37715C18.2215 5.53913 18.5235 5.73598 18.8362 6.04869C19.1528 6.36533 19.3458 6.66398 19.5111 7.08243C19.6343 7.39907 19.7816 7.87657 19.8204 8.75227C19.8626 9.70164 19.8733 9.98623 19.8733 12.3872C19.8733 14.7882 19.8626 15.0762 19.8204 16.0222C19.7816 16.9012 19.6343 17.3754 19.5111 17.692C19.3491 18.1105 19.1528 18.4125 18.8396 18.7252C18.5229 19.0418 18.2243 19.2347 17.8064 19.4001C17.4898 19.5233 17.0117 19.6706 16.1366 19.7094C15.1872 19.7516 14.9026 19.7623 12.5016 19.7623C10.1006 19.7623 9.81266 19.7516 8.86666 19.7094C7.98759 19.6706 7.51346 19.5233 7.19682 19.4001C6.77838 19.2381 6.47635 19.0418 6.16308 18.7286C5.84644 18.4119 5.65353 18.1133 5.48817 17.6954C5.365 17.3787 5.21765 16.9007 5.17884 16.0255C5.13666 15.0762 5.12597 14.7916 5.12597 12.3906C5.12597 9.9896 5.13666 9.70164 5.17884 8.75564C5.21765 7.87657 5.365 7.40245 5.48817 7.0858C5.65015 6.66736 5.847 6.36533 6.15971 6.05206C6.47635 5.73542 6.775 5.54251 7.19344 5.37715C7.51009 5.25398 7.98759 5.10663 8.86328 5.06782C9.80872 5.02564 10.0939 5.01495 12.4982 5.01495H12.4988ZM12.4988 3.39461C10.0556 3.39461 9.75023 3.40529 8.79017 3.44747C7.83405 3.48966 7.17657 3.64432 6.6074 3.86592C6.01348 4.09764 5.51067 4.4036 5.0118 4.9064C4.50899 5.40584 4.20303 5.90808 3.97131 6.49863C3.74972 7.07174 3.59505 7.72528 3.55287 8.6814C3.51069 9.64483 3.5 9.95023 3.5 12.3934C3.5 14.8366 3.51069 15.142 3.55287 16.102C3.59505 17.0582 3.74972 17.7156 3.97131 18.2848C4.20359 18.8787 4.50899 19.3815 5.0118 19.8804C5.51067 20.3793 6.01348 20.6892 6.60402 20.9175C7.17713 21.1391 7.83067 21.2938 8.78679 21.336C9.74629 21.3781 10.0523 21.3888 12.4954 21.3888C14.9386 21.3888 15.2446 21.3781 16.2041 21.336C17.1602 21.2938 17.8177 21.1391 18.3868 20.9175C18.9774 20.6892 19.4802 20.3798 19.9791 19.8804C20.4779 19.381 20.7878 18.8787 21.0162 18.2882C21.2378 17.7151 21.3924 17.0615 21.4346 16.1054C21.4768 15.1459 21.4875 14.84 21.4875 12.3968C21.4875 9.95361 21.4768 9.64821 21.4346 8.68815C21.3924 7.73203 21.2378 7.07455 21.0162 6.50538C20.7946 5.90752 20.4886 5.40527 19.9864 4.90584C19.4875 4.40697 18.9847 4.09707 18.3941 3.86873C17.821 3.64713 17.1675 3.49247 16.2114 3.45029C15.2485 3.40473 14.9425 3.39404 12.4994 3.39404L12.4988 3.39461Z" fill="#080C09" />
  <path d="M12.4985 7.77051C9.94683 7.77051 7.87598 9.84079 7.87598 12.3931C7.87598 14.9454 9.94626 17.0156 12.4985 17.0156C15.0508 17.0156 17.1211 14.9454 17.1211 12.3931C17.1211 9.84136 15.0508 7.77051 12.4985 7.77051ZM12.4985 15.3914C10.8428 15.3914 9.50026 14.0489 9.50026 12.3931C9.50026 10.7373 10.8428 9.39479 12.4985 9.39479C14.1543 9.39479 15.4968 10.7373 15.4968 12.3931C15.4968 14.0489 14.1543 15.3914 12.4985 15.3914Z" fill="#080C09" />
  <path d="M18.3822 7.58808C18.3822 8.18425 17.8991 8.66738 17.3029 8.66738C16.7068 8.66738 16.2236 8.18425 16.2236 7.58808C16.2236 6.99191 16.7068 6.50879 17.3029 6.50879C17.8991 6.50879 18.3822 6.99191 18.3822 7.58808Z" fill="#080C09" />
</svg>