<svg width="25" height="25" viewBox="0 0 25 25" fill="none" xmlns="http://www.w3.org/2000/svg">
  <path d="M22.0928 7.59705C21.9789 7.17445 21.7563 6.78905 21.4472 6.47922C21.1381 6.16938 20.7532 5.94591 20.3308 5.83105C18.7648 5.40105 12.4998 5.39405 12.4998 5.39405C12.4998 5.39405 6.23584 5.38705 4.66884 5.79805C4.24677 5.9182 3.86266 6.14483 3.55341 6.45618C3.24415 6.76754 3.02013 7.15317 2.90284 7.57605C2.48984 9.14205 2.48584 12.3901 2.48584 12.3901C2.48584 12.3901 2.48184 15.654 2.89184 17.2041C3.12184 18.0611 3.79684 18.7381 4.65484 18.9691C6.23684 19.3991 12.4848 19.406 12.4848 19.406C12.4848 19.406 18.7498 19.413 20.3158 19.003C20.7383 18.8884 21.1236 18.6654 21.4335 18.3562C21.7434 18.047 21.9672 17.6623 22.0828 17.2401C22.4968 15.6751 22.4998 12.4281 22.4998 12.4281C22.4998 12.4281 22.5198 9.16305 22.0928 7.59705ZM10.4958 15.3991L10.5008 9.39905L15.7078 12.4041L10.4958 15.3991Z" fill="white" />
</svg>